<svg xmlns="http://www.w3.org/2000/svg" xmlns:xlink="http://www.w3.org/1999/xlink" width="500" zoomAndPan="magnify" viewBox="0 0 375 374.999991" height="500" preserveAspectRatio="xMidYMid meet" version="1.0"><defs><g/><clipPath id="97a24214c4"><path d="M 71.054688 70.726562 L 304 70.726562 L 304 154.726562 L 71.054688 154.726562 Z M 71.054688 70.726562 " clip-rule="nonzero"/></clipPath><clipPath id="5d2ba6e955"><path d="M 187.503906 70.726562 C 123.195312 70.726562 71.054688 122.863281 71.054688 187.175781 C 71.054688 251.488281 123.195312 303.625 187.503906 303.625 C 251.816406 303.625 303.953125 251.488281 303.953125 187.175781 C 303.953125 122.863281 251.820312 70.726562 187.503906 70.726562 Z M 187.503906 263.539062 C 145.332031 263.539062 111.140625 229.351562 111.140625 187.175781 C 111.140625 145 145.328125 110.8125 187.503906 110.8125 C 229.679688 110.8125 263.867188 145 263.867188 187.175781 C 263.867188 229.351562 229.675781 263.539062 187.503906 263.539062 Z M 187.503906 263.539062 " clip-rule="nonzero"/></clipPath><linearGradient x1="-0.00000699943" gradientTransform="matrix(0.508708, 0, 0, 0.508708, 71.05611, 70.727658)" y1="228.912" x2="457.81998" gradientUnits="userSpaceOnUse" y2="228.912" id="19ac0d1c65"><stop stop-opacity="1" stop-color="rgb(10.198975%, 48.199463%, 23.098755%)" offset="0"/><stop stop-opacity="1" stop-color="rgb(10.374451%, 48.313904%, 23.104858%)" offset="0.0078125"/><stop stop-opacity="1" stop-color="rgb(10.726929%, 48.542786%, 23.118591%)" offset="0.015625"/><stop stop-opacity="1" stop-color="rgb(11.079407%, 48.773193%, 23.130798%)" offset="0.0234375"/><stop stop-opacity="1" stop-color="rgb(11.431885%, 49.002075%, 23.143005%)" offset="0.03125"/><stop stop-opacity="1" stop-color="rgb(11.784363%, 49.232483%, 23.155212%)" offset="0.0390625"/><stop stop-opacity="1" stop-color="rgb(12.136841%, 49.461365%, 23.167419%)" offset="0.046875"/><stop stop-opacity="1" stop-color="rgb(12.489319%, 49.691772%, 23.179626%)" offset="0.0546875"/><stop stop-opacity="1" stop-color="rgb(12.841797%, 49.92218%, 23.193359%)" offset="0.0625"/><stop stop-opacity="1" stop-color="rgb(13.192749%, 50.151062%, 23.205566%)" offset="0.0703125"/><stop stop-opacity="1" stop-color="rgb(13.545227%, 50.38147%, 23.217773%)" offset="0.078125"/><stop stop-opacity="1" stop-color="rgb(13.897705%, 50.610352%, 23.22998%)" offset="0.0859375"/><stop stop-opacity="1" stop-color="rgb(14.250183%, 50.840759%, 23.242188%)" offset="0.09375"/><stop stop-opacity="1" stop-color="rgb(14.602661%, 51.069641%, 23.25592%)" offset="0.101562"/><stop stop-opacity="1" stop-color="rgb(14.955139%, 51.300049%, 23.268127%)" offset="0.109375"/><stop stop-opacity="1" stop-color="rgb(15.307617%, 51.528931%, 23.280334%)" offset="0.117187"/><stop stop-opacity="1" stop-color="rgb(15.660095%, 51.759338%, 23.292542%)" offset="0.125"/><stop stop-opacity="1" stop-color="rgb(16.012573%, 51.98822%, 23.304749%)" offset="0.132812"/><stop stop-opacity="1" stop-color="rgb(16.365051%, 52.218628%, 23.318481%)" offset="0.140625"/><stop stop-opacity="1" stop-color="rgb(16.717529%, 52.44751%, 23.330688%)" offset="0.148438"/><stop stop-opacity="1" stop-color="rgb(17.068481%, 52.677917%, 23.342896%)" offset="0.15625"/><stop stop-opacity="1" stop-color="rgb(17.420959%, 52.906799%, 23.355103%)" offset="0.164062"/><stop stop-opacity="1" stop-color="rgb(17.773438%, 53.137207%, 23.36731%)" offset="0.171875"/><stop stop-opacity="1" stop-color="rgb(18.125916%, 53.366089%, 23.381042%)" offset="0.179688"/><stop stop-opacity="1" stop-color="rgb(18.478394%, 53.596497%, 23.39325%)" offset="0.1875"/><stop stop-opacity="1" stop-color="rgb(18.830872%, 53.825378%, 23.405457%)" offset="0.195313"/><stop stop-opacity="1" stop-color="rgb(19.18335%, 54.055786%, 23.417664%)" offset="0.203125"/><stop stop-opacity="1" stop-color="rgb(19.535828%, 54.286194%, 23.429871%)" offset="0.210938"/><stop stop-opacity="1" stop-color="rgb(19.888306%, 54.515076%, 23.442078%)" offset="0.21875"/><stop stop-opacity="1" stop-color="rgb(20.240784%, 54.745483%, 23.455811%)" offset="0.226562"/><stop stop-opacity="1" stop-color="rgb(20.593262%, 54.974365%, 23.468018%)" offset="0.234375"/><stop stop-opacity="1" stop-color="rgb(20.944214%, 55.204773%, 23.480225%)" offset="0.242187"/><stop stop-opacity="1" stop-color="rgb(21.296692%, 55.433655%, 23.492432%)" offset="0.25"/><stop stop-opacity="1" stop-color="rgb(21.64917%, 55.664062%, 23.504639%)" offset="0.257812"/><stop stop-opacity="1" stop-color="rgb(22.001648%, 55.892944%, 23.518372%)" offset="0.265625"/><stop stop-opacity="1" stop-color="rgb(22.354126%, 56.123352%, 23.530579%)" offset="0.273438"/><stop stop-opacity="1" stop-color="rgb(22.706604%, 56.352234%, 23.542786%)" offset="0.28125"/><stop stop-opacity="1" stop-color="rgb(23.059082%, 56.582642%, 23.554993%)" offset="0.289063"/><stop stop-opacity="1" stop-color="rgb(23.41156%, 56.811523%, 23.5672%)" offset="0.296875"/><stop stop-opacity="1" stop-color="rgb(23.764038%, 57.041931%, 23.580933%)" offset="0.304688"/><stop stop-opacity="1" stop-color="rgb(24.116516%, 57.270813%, 23.59314%)" offset="0.3125"/><stop stop-opacity="1" stop-color="rgb(24.468994%, 57.501221%, 23.605347%)" offset="0.320312"/><stop stop-opacity="1" stop-color="rgb(24.821472%, 57.730103%, 23.617554%)" offset="0.328125"/><stop stop-opacity="1" stop-color="rgb(25.172424%, 57.96051%, 23.629761%)" offset="0.335938"/><stop stop-opacity="1" stop-color="rgb(25.524902%, 58.190918%, 23.643494%)" offset="0.34375"/><stop stop-opacity="1" stop-color="rgb(25.87738%, 58.4198%, 23.655701%)" offset="0.351562"/><stop stop-opacity="1" stop-color="rgb(26.229858%, 58.650208%, 23.667908%)" offset="0.359375"/><stop stop-opacity="1" stop-color="rgb(26.582336%, 58.879089%, 23.680115%)" offset="0.367187"/><stop stop-opacity="1" stop-color="rgb(26.934814%, 59.109497%, 23.692322%)" offset="0.375"/><stop stop-opacity="1" stop-color="rgb(27.287292%, 59.338379%, 23.706055%)" offset="0.382813"/><stop stop-opacity="1" stop-color="rgb(27.639771%, 59.568787%, 23.718262%)" offset="0.390625"/><stop stop-opacity="1" stop-color="rgb(27.992249%, 59.797668%, 23.730469%)" offset="0.398438"/><stop stop-opacity="1" stop-color="rgb(28.344727%, 60.028076%, 23.742676%)" offset="0.40625"/><stop stop-opacity="1" stop-color="rgb(28.697205%, 60.256958%, 23.754883%)" offset="0.414063"/><stop stop-opacity="1" stop-color="rgb(29.048157%, 60.487366%, 23.76709%)" offset="0.421875"/><stop stop-opacity="1" stop-color="rgb(29.400635%, 60.716248%, 23.780823%)" offset="0.429688"/><stop stop-opacity="1" stop-color="rgb(29.753113%, 60.946655%, 23.79303%)" offset="0.4375"/><stop stop-opacity="1" stop-color="rgb(30.105591%, 61.175537%, 23.805237%)" offset="0.445312"/><stop stop-opacity="1" stop-color="rgb(30.458069%, 61.405945%, 23.817444%)" offset="0.453125"/><stop stop-opacity="1" stop-color="rgb(30.810547%, 61.634827%, 23.829651%)" offset="0.460938"/><stop stop-opacity="1" stop-color="rgb(31.163025%, 61.865234%, 23.843384%)" offset="0.46875"/><stop stop-opacity="1" stop-color="rgb(31.515503%, 62.094116%, 23.855591%)" offset="0.476562"/><stop stop-opacity="1" stop-color="rgb(31.867981%, 62.324524%, 23.867798%)" offset="0.484375"/><stop stop-opacity="1" stop-color="rgb(32.220459%, 62.554932%, 23.880005%)" offset="0.492187"/><stop stop-opacity="1" stop-color="rgb(32.572937%, 62.783813%, 23.892212%)" offset="0.5"/><stop stop-opacity="1" stop-color="rgb(32.923889%, 63.014221%, 23.905945%)" offset="0.507812"/><stop stop-opacity="1" stop-color="rgb(33.276367%, 63.243103%, 23.918152%)" offset="0.515625"/><stop stop-opacity="1" stop-color="rgb(33.628845%, 63.473511%, 23.930359%)" offset="0.523438"/><stop stop-opacity="1" stop-color="rgb(33.981323%, 63.702393%, 23.942566%)" offset="0.53125"/><stop stop-opacity="1" stop-color="rgb(34.333801%, 63.9328%, 23.954773%)" offset="0.539062"/><stop stop-opacity="1" stop-color="rgb(34.686279%, 64.161682%, 23.968506%)" offset="0.546875"/><stop stop-opacity="1" stop-color="rgb(35.038757%, 64.39209%, 23.980713%)" offset="0.554688"/><stop stop-opacity="1" stop-color="rgb(35.391235%, 64.620972%, 23.99292%)" offset="0.5625"/><stop stop-opacity="1" stop-color="rgb(35.743713%, 64.851379%, 24.005127%)" offset="0.570312"/><stop stop-opacity="1" stop-color="rgb(36.096191%, 65.080261%, 24.017334%)" offset="0.578125"/><stop stop-opacity="1" stop-color="rgb(36.448669%, 65.310669%, 24.031067%)" offset="0.585938"/><stop stop-opacity="1" stop-color="rgb(36.799622%, 65.539551%, 24.043274%)" offset="0.59375"/><stop stop-opacity="1" stop-color="rgb(37.1521%, 65.769958%, 24.055481%)" offset="0.601562"/><stop stop-opacity="1" stop-color="rgb(37.504578%, 65.99884%, 24.067688%)" offset="0.609375"/><stop stop-opacity="1" stop-color="rgb(37.857056%, 66.229248%, 24.079895%)" offset="0.617187"/><stop stop-opacity="1" stop-color="rgb(38.209534%, 66.45813%, 24.092102%)" offset="0.625"/><stop stop-opacity="1" stop-color="rgb(38.562012%, 66.688538%, 24.105835%)" offset="0.632813"/><stop stop-opacity="1" stop-color="rgb(38.91449%, 66.918945%, 24.118042%)" offset="0.640625"/><stop stop-opacity="1" stop-color="rgb(39.266968%, 67.147827%, 24.130249%)" offset="0.648438"/><stop stop-opacity="1" stop-color="rgb(39.619446%, 67.378235%, 24.142456%)" offset="0.65625"/><stop stop-opacity="1" stop-color="rgb(39.971924%, 67.607117%, 24.154663%)" offset="0.664063"/><stop stop-opacity="1" stop-color="rgb(40.324402%, 67.837524%, 24.168396%)" offset="0.671875"/><stop stop-opacity="1" stop-color="rgb(40.675354%, 68.066406%, 24.180603%)" offset="0.679688"/><stop stop-opacity="1" stop-color="rgb(41.027832%, 68.296814%, 24.19281%)" offset="0.6875"/><stop stop-opacity="1" stop-color="rgb(41.38031%, 68.525696%, 24.205017%)" offset="0.695313"/><stop stop-opacity="1" stop-color="rgb(41.732788%, 68.756104%, 24.217224%)" offset="0.703125"/><stop stop-opacity="1" stop-color="rgb(42.085266%, 68.984985%, 24.230957%)" offset="0.710938"/><stop stop-opacity="1" stop-color="rgb(42.437744%, 69.215393%, 24.243164%)" offset="0.71875"/><stop stop-opacity="1" stop-color="rgb(42.790222%, 69.444275%, 24.255371%)" offset="0.726562"/><stop stop-opacity="1" stop-color="rgb(43.1427%, 69.674683%, 24.267578%)" offset="0.734375"/><stop stop-opacity="1" stop-color="rgb(43.495178%, 69.903564%, 24.279785%)" offset="0.742188"/><stop stop-opacity="1" stop-color="rgb(43.847656%, 70.133972%, 24.293518%)" offset="0.75"/><stop stop-opacity="1" stop-color="rgb(44.200134%, 70.362854%, 24.305725%)" offset="0.757812"/><stop stop-opacity="1" stop-color="rgb(44.551086%, 70.593262%, 24.317932%)" offset="0.765625"/><stop stop-opacity="1" stop-color="rgb(44.903564%, 70.822144%, 24.330139%)" offset="0.773438"/><stop stop-opacity="1" stop-color="rgb(45.256042%, 71.052551%, 24.342346%)" offset="0.78125"/><stop stop-opacity="1" stop-color="rgb(45.608521%, 71.282959%, 24.356079%)" offset="0.789062"/><stop stop-opacity="1" stop-color="rgb(45.960999%, 71.511841%, 24.368286%)" offset="0.796875"/><stop stop-opacity="1" stop-color="rgb(46.313477%, 71.742249%, 24.380493%)" offset="0.804688"/><stop stop-opacity="1" stop-color="rgb(46.665955%, 71.97113%, 24.3927%)" offset="0.8125"/><stop stop-opacity="1" stop-color="rgb(47.018433%, 72.201538%, 24.404907%)" offset="0.820312"/><stop stop-opacity="1" stop-color="rgb(47.370911%, 72.43042%, 24.417114%)" offset="0.828125"/><stop stop-opacity="1" stop-color="rgb(47.723389%, 72.660828%, 24.430847%)" offset="0.835937"/><stop stop-opacity="1" stop-color="rgb(48.075867%, 72.889709%, 24.443054%)" offset="0.84375"/><stop stop-opacity="1" stop-color="rgb(48.428345%, 73.120117%, 24.455261%)" offset="0.851562"/><stop stop-opacity="1" stop-color="rgb(48.779297%, 73.348999%, 24.467468%)" offset="0.859375"/><stop stop-opacity="1" stop-color="rgb(49.131775%, 73.579407%, 24.479675%)" offset="0.867187"/><stop stop-opacity="1" stop-color="rgb(49.484253%, 73.808289%, 24.493408%)" offset="0.875"/><stop stop-opacity="1" stop-color="rgb(49.836731%, 74.038696%, 24.505615%)" offset="0.882813"/><stop stop-opacity="1" stop-color="rgb(50.189209%, 74.267578%, 24.517822%)" offset="0.890625"/><stop stop-opacity="1" stop-color="rgb(50.541687%, 74.497986%, 24.530029%)" offset="0.898438"/><stop stop-opacity="1" stop-color="rgb(50.894165%, 74.726868%, 24.542236%)" offset="0.90625"/><stop stop-opacity="1" stop-color="rgb(51.246643%, 74.957275%, 24.555969%)" offset="0.914063"/><stop stop-opacity="1" stop-color="rgb(51.599121%, 75.187683%, 24.568176%)" offset="0.921875"/><stop stop-opacity="1" stop-color="rgb(51.951599%, 75.416565%, 24.580383%)" offset="0.929688"/><stop stop-opacity="1" stop-color="rgb(52.304077%, 75.646973%, 24.59259%)" offset="0.9375"/><stop stop-opacity="1" stop-color="rgb(52.655029%, 75.875854%, 24.604797%)" offset="0.945312"/><stop stop-opacity="1" stop-color="rgb(53.007507%, 76.106262%, 24.61853%)" offset="0.953125"/><stop stop-opacity="1" stop-color="rgb(53.359985%, 76.335144%, 24.630737%)" offset="0.960938"/><stop stop-opacity="1" stop-color="rgb(53.712463%, 76.565552%, 24.642944%)" offset="0.96875"/><stop stop-opacity="1" stop-color="rgb(54.064941%, 76.794434%, 24.655151%)" offset="0.976562"/><stop stop-opacity="1" stop-color="rgb(54.417419%, 77.024841%, 24.667358%)" offset="0.984375"/><stop stop-opacity="1" stop-color="rgb(54.769897%, 77.253723%, 24.681091%)" offset="0.992188"/><stop stop-opacity="1" stop-color="rgb(55.122375%, 77.484131%, 24.693298%)" offset="1"/></linearGradient><clipPath id="d2b8e73830"><path d="M 71.054688 220.113281 L 304 220.113281 L 304 304.113281 L 71.054688 304.113281 Z M 71.054688 220.113281 " clip-rule="nonzero"/></clipPath><clipPath id="2e3ccc4116"><path d="M 187.503906 304.265625 C 123.195312 304.265625 71.054688 252.128906 71.054688 187.820312 C 71.054688 123.507812 123.195312 71.371094 187.503906 71.371094 C 251.816406 71.371094 303.953125 123.507812 303.953125 187.820312 C 303.953125 252.128906 251.820312 304.265625 187.503906 304.265625 Z M 187.503906 111.457031 C 145.332031 111.457031 111.140625 145.640625 111.140625 187.820312 C 111.140625 229.996094 145.328125 264.179688 187.503906 264.179688 C 229.679688 264.179688 263.867188 229.996094 263.867188 187.820312 C 263.867188 145.640625 229.675781 111.457031 187.503906 111.457031 Z M 187.503906 111.457031 " clip-rule="nonzero"/></clipPath><linearGradient x1="-0.00000699943" gradientTransform="matrix(0.508708, 0, 0, -0.508708, 71.05611, 304.267085)" y1="228.912" x2="457.81998" gradientUnits="userSpaceOnUse" y2="228.912" id="c34d386f71"><stop stop-opacity="1" stop-color="rgb(10.198975%, 48.199463%, 23.098755%)" offset="0"/><stop stop-opacity="1" stop-color="rgb(10.374451%, 48.313904%, 23.104858%)" offset="0.0078125"/><stop stop-opacity="1" stop-color="rgb(10.726929%, 48.542786%, 23.118591%)" offset="0.015625"/><stop stop-opacity="1" stop-color="rgb(11.079407%, 48.773193%, 23.130798%)" offset="0.0234375"/><stop stop-opacity="1" stop-color="rgb(11.431885%, 49.002075%, 23.143005%)" offset="0.03125"/><stop stop-opacity="1" stop-color="rgb(11.784363%, 49.232483%, 23.155212%)" offset="0.0390625"/><stop stop-opacity="1" stop-color="rgb(12.136841%, 49.461365%, 23.167419%)" offset="0.046875"/><stop stop-opacity="1" stop-color="rgb(12.489319%, 49.691772%, 23.179626%)" offset="0.0546875"/><stop stop-opacity="1" stop-color="rgb(12.841797%, 49.92218%, 23.193359%)" offset="0.0625"/><stop stop-opacity="1" stop-color="rgb(13.192749%, 50.151062%, 23.205566%)" offset="0.0703125"/><stop stop-opacity="1" stop-color="rgb(13.545227%, 50.38147%, 23.217773%)" offset="0.078125"/><stop stop-opacity="1" stop-color="rgb(13.897705%, 50.610352%, 23.22998%)" offset="0.0859375"/><stop stop-opacity="1" stop-color="rgb(14.250183%, 50.840759%, 23.242188%)" offset="0.09375"/><stop stop-opacity="1" stop-color="rgb(14.602661%, 51.069641%, 23.25592%)" offset="0.101562"/><stop stop-opacity="1" stop-color="rgb(14.955139%, 51.300049%, 23.268127%)" offset="0.109375"/><stop stop-opacity="1" stop-color="rgb(15.307617%, 51.528931%, 23.280334%)" offset="0.117187"/><stop stop-opacity="1" stop-color="rgb(15.660095%, 51.759338%, 23.292542%)" offset="0.125"/><stop stop-opacity="1" stop-color="rgb(16.012573%, 51.98822%, 23.304749%)" offset="0.132812"/><stop stop-opacity="1" stop-color="rgb(16.365051%, 52.218628%, 23.318481%)" offset="0.140625"/><stop stop-opacity="1" stop-color="rgb(16.717529%, 52.44751%, 23.330688%)" offset="0.148438"/><stop stop-opacity="1" stop-color="rgb(17.068481%, 52.677917%, 23.342896%)" offset="0.15625"/><stop stop-opacity="1" stop-color="rgb(17.420959%, 52.906799%, 23.355103%)" offset="0.164062"/><stop stop-opacity="1" stop-color="rgb(17.773438%, 53.137207%, 23.36731%)" offset="0.171875"/><stop stop-opacity="1" stop-color="rgb(18.125916%, 53.366089%, 23.381042%)" offset="0.179688"/><stop stop-opacity="1" stop-color="rgb(18.478394%, 53.596497%, 23.39325%)" offset="0.1875"/><stop stop-opacity="1" stop-color="rgb(18.830872%, 53.825378%, 23.405457%)" offset="0.195313"/><stop stop-opacity="1" stop-color="rgb(19.18335%, 54.055786%, 23.417664%)" offset="0.203125"/><stop stop-opacity="1" stop-color="rgb(19.535828%, 54.286194%, 23.429871%)" offset="0.210938"/><stop stop-opacity="1" stop-color="rgb(19.888306%, 54.515076%, 23.442078%)" offset="0.21875"/><stop stop-opacity="1" stop-color="rgb(20.240784%, 54.745483%, 23.455811%)" offset="0.226562"/><stop stop-opacity="1" stop-color="rgb(20.593262%, 54.974365%, 23.468018%)" offset="0.234375"/><stop stop-opacity="1" stop-color="rgb(20.944214%, 55.204773%, 23.480225%)" offset="0.242187"/><stop stop-opacity="1" stop-color="rgb(21.296692%, 55.433655%, 23.492432%)" offset="0.25"/><stop stop-opacity="1" stop-color="rgb(21.64917%, 55.664062%, 23.504639%)" offset="0.257812"/><stop stop-opacity="1" stop-color="rgb(22.001648%, 55.892944%, 23.518372%)" offset="0.265625"/><stop stop-opacity="1" stop-color="rgb(22.354126%, 56.123352%, 23.530579%)" offset="0.273438"/><stop stop-opacity="1" stop-color="rgb(22.706604%, 56.352234%, 23.542786%)" offset="0.28125"/><stop stop-opacity="1" stop-color="rgb(23.059082%, 56.582642%, 23.554993%)" offset="0.289063"/><stop stop-opacity="1" stop-color="rgb(23.41156%, 56.811523%, 23.5672%)" offset="0.296875"/><stop stop-opacity="1" stop-color="rgb(23.764038%, 57.041931%, 23.580933%)" offset="0.304688"/><stop stop-opacity="1" stop-color="rgb(24.116516%, 57.270813%, 23.59314%)" offset="0.3125"/><stop stop-opacity="1" stop-color="rgb(24.468994%, 57.501221%, 23.605347%)" offset="0.320312"/><stop stop-opacity="1" stop-color="rgb(24.821472%, 57.730103%, 23.617554%)" offset="0.328125"/><stop stop-opacity="1" stop-color="rgb(25.172424%, 57.96051%, 23.629761%)" offset="0.335938"/><stop stop-opacity="1" stop-color="rgb(25.524902%, 58.190918%, 23.643494%)" offset="0.34375"/><stop stop-opacity="1" stop-color="rgb(25.87738%, 58.4198%, 23.655701%)" offset="0.351562"/><stop stop-opacity="1" stop-color="rgb(26.229858%, 58.650208%, 23.667908%)" offset="0.359375"/><stop stop-opacity="1" stop-color="rgb(26.582336%, 58.879089%, 23.680115%)" offset="0.367187"/><stop stop-opacity="1" stop-color="rgb(26.934814%, 59.109497%, 23.692322%)" offset="0.375"/><stop stop-opacity="1" stop-color="rgb(27.287292%, 59.338379%, 23.706055%)" offset="0.382813"/><stop stop-opacity="1" stop-color="rgb(27.639771%, 59.568787%, 23.718262%)" offset="0.390625"/><stop stop-opacity="1" stop-color="rgb(27.992249%, 59.797668%, 23.730469%)" offset="0.398438"/><stop stop-opacity="1" stop-color="rgb(28.344727%, 60.028076%, 23.742676%)" offset="0.40625"/><stop stop-opacity="1" stop-color="rgb(28.697205%, 60.256958%, 23.754883%)" offset="0.414063"/><stop stop-opacity="1" stop-color="rgb(29.048157%, 60.487366%, 23.76709%)" offset="0.421875"/><stop stop-opacity="1" stop-color="rgb(29.400635%, 60.716248%, 23.780823%)" offset="0.429688"/><stop stop-opacity="1" stop-color="rgb(29.753113%, 60.946655%, 23.79303%)" offset="0.4375"/><stop stop-opacity="1" stop-color="rgb(30.105591%, 61.175537%, 23.805237%)" offset="0.445312"/><stop stop-opacity="1" stop-color="rgb(30.458069%, 61.405945%, 23.817444%)" offset="0.453125"/><stop stop-opacity="1" stop-color="rgb(30.810547%, 61.634827%, 23.829651%)" offset="0.460938"/><stop stop-opacity="1" stop-color="rgb(31.163025%, 61.865234%, 23.843384%)" offset="0.46875"/><stop stop-opacity="1" stop-color="rgb(31.515503%, 62.094116%, 23.855591%)" offset="0.476562"/><stop stop-opacity="1" stop-color="rgb(31.867981%, 62.324524%, 23.867798%)" offset="0.484375"/><stop stop-opacity="1" stop-color="rgb(32.220459%, 62.554932%, 23.880005%)" offset="0.492187"/><stop stop-opacity="1" stop-color="rgb(32.572937%, 62.783813%, 23.892212%)" offset="0.5"/><stop stop-opacity="1" stop-color="rgb(32.923889%, 63.014221%, 23.905945%)" offset="0.507812"/><stop stop-opacity="1" stop-color="rgb(33.276367%, 63.243103%, 23.918152%)" offset="0.515625"/><stop stop-opacity="1" stop-color="rgb(33.628845%, 63.473511%, 23.930359%)" offset="0.523438"/><stop stop-opacity="1" stop-color="rgb(33.981323%, 63.702393%, 23.942566%)" offset="0.53125"/><stop stop-opacity="1" stop-color="rgb(34.333801%, 63.9328%, 23.954773%)" offset="0.539062"/><stop stop-opacity="1" stop-color="rgb(34.686279%, 64.161682%, 23.968506%)" offset="0.546875"/><stop stop-opacity="1" stop-color="rgb(35.038757%, 64.39209%, 23.980713%)" offset="0.554688"/><stop stop-opacity="1" stop-color="rgb(35.391235%, 64.620972%, 23.99292%)" offset="0.5625"/><stop stop-opacity="1" stop-color="rgb(35.743713%, 64.851379%, 24.005127%)" offset="0.570312"/><stop stop-opacity="1" stop-color="rgb(36.096191%, 65.080261%, 24.017334%)" offset="0.578125"/><stop stop-opacity="1" stop-color="rgb(36.448669%, 65.310669%, 24.031067%)" offset="0.585938"/><stop stop-opacity="1" stop-color="rgb(36.799622%, 65.539551%, 24.043274%)" offset="0.59375"/><stop stop-opacity="1" stop-color="rgb(37.1521%, 65.769958%, 24.055481%)" offset="0.601562"/><stop stop-opacity="1" stop-color="rgb(37.504578%, 65.99884%, 24.067688%)" offset="0.609375"/><stop stop-opacity="1" stop-color="rgb(37.857056%, 66.229248%, 24.079895%)" offset="0.617187"/><stop stop-opacity="1" stop-color="rgb(38.209534%, 66.45813%, 24.092102%)" offset="0.625"/><stop stop-opacity="1" stop-color="rgb(38.562012%, 66.688538%, 24.105835%)" offset="0.632813"/><stop stop-opacity="1" stop-color="rgb(38.91449%, 66.918945%, 24.118042%)" offset="0.640625"/><stop stop-opacity="1" stop-color="rgb(39.266968%, 67.147827%, 24.130249%)" offset="0.648438"/><stop stop-opacity="1" stop-color="rgb(39.619446%, 67.378235%, 24.142456%)" offset="0.65625"/><stop stop-opacity="1" stop-color="rgb(39.971924%, 67.607117%, 24.154663%)" offset="0.664063"/><stop stop-opacity="1" stop-color="rgb(40.324402%, 67.837524%, 24.168396%)" offset="0.671875"/><stop stop-opacity="1" stop-color="rgb(40.675354%, 68.066406%, 24.180603%)" offset="0.679688"/><stop stop-opacity="1" stop-color="rgb(41.027832%, 68.296814%, 24.19281%)" offset="0.6875"/><stop stop-opacity="1" stop-color="rgb(41.38031%, 68.525696%, 24.205017%)" offset="0.695313"/><stop stop-opacity="1" stop-color="rgb(41.732788%, 68.756104%, 24.217224%)" offset="0.703125"/><stop stop-opacity="1" stop-color="rgb(42.085266%, 68.984985%, 24.230957%)" offset="0.710938"/><stop stop-opacity="1" stop-color="rgb(42.437744%, 69.215393%, 24.243164%)" offset="0.71875"/><stop stop-opacity="1" stop-color="rgb(42.790222%, 69.444275%, 24.255371%)" offset="0.726562"/><stop stop-opacity="1" stop-color="rgb(43.1427%, 69.674683%, 24.267578%)" offset="0.734375"/><stop stop-opacity="1" stop-color="rgb(43.495178%, 69.903564%, 24.279785%)" offset="0.742188"/><stop stop-opacity="1" stop-color="rgb(43.847656%, 70.133972%, 24.293518%)" offset="0.75"/><stop stop-opacity="1" stop-color="rgb(44.200134%, 70.362854%, 24.305725%)" offset="0.757812"/><stop stop-opacity="1" stop-color="rgb(44.551086%, 70.593262%, 24.317932%)" offset="0.765625"/><stop stop-opacity="1" stop-color="rgb(44.903564%, 70.822144%, 24.330139%)" offset="0.773438"/><stop stop-opacity="1" stop-color="rgb(45.256042%, 71.052551%, 24.342346%)" offset="0.78125"/><stop stop-opacity="1" stop-color="rgb(45.608521%, 71.282959%, 24.356079%)" offset="0.789062"/><stop stop-opacity="1" stop-color="rgb(45.960999%, 71.511841%, 24.368286%)" offset="0.796875"/><stop stop-opacity="1" stop-color="rgb(46.313477%, 71.742249%, 24.380493%)" offset="0.804688"/><stop stop-opacity="1" stop-color="rgb(46.665955%, 71.97113%, 24.3927%)" offset="0.8125"/><stop stop-opacity="1" stop-color="rgb(47.018433%, 72.201538%, 24.404907%)" offset="0.820312"/><stop stop-opacity="1" stop-color="rgb(47.370911%, 72.43042%, 24.417114%)" offset="0.828125"/><stop stop-opacity="1" stop-color="rgb(47.723389%, 72.660828%, 24.430847%)" offset="0.835937"/><stop stop-opacity="1" stop-color="rgb(48.075867%, 72.889709%, 24.443054%)" offset="0.84375"/><stop stop-opacity="1" stop-color="rgb(48.428345%, 73.120117%, 24.455261%)" offset="0.851562"/><stop stop-opacity="1" stop-color="rgb(48.779297%, 73.348999%, 24.467468%)" offset="0.859375"/><stop stop-opacity="1" stop-color="rgb(49.131775%, 73.579407%, 24.479675%)" offset="0.867187"/><stop stop-opacity="1" stop-color="rgb(49.484253%, 73.808289%, 24.493408%)" offset="0.875"/><stop stop-opacity="1" stop-color="rgb(49.836731%, 74.038696%, 24.505615%)" offset="0.882813"/><stop stop-opacity="1" stop-color="rgb(50.189209%, 74.267578%, 24.517822%)" offset="0.890625"/><stop stop-opacity="1" stop-color="rgb(50.541687%, 74.497986%, 24.530029%)" offset="0.898438"/><stop stop-opacity="1" stop-color="rgb(50.894165%, 74.726868%, 24.542236%)" offset="0.90625"/><stop stop-opacity="1" stop-color="rgb(51.246643%, 74.957275%, 24.555969%)" offset="0.914063"/><stop stop-opacity="1" stop-color="rgb(51.599121%, 75.187683%, 24.568176%)" offset="0.921875"/><stop stop-opacity="1" stop-color="rgb(51.951599%, 75.416565%, 24.580383%)" offset="0.929688"/><stop stop-opacity="1" stop-color="rgb(52.304077%, 75.646973%, 24.59259%)" offset="0.9375"/><stop stop-opacity="1" stop-color="rgb(52.655029%, 75.875854%, 24.604797%)" offset="0.945312"/><stop stop-opacity="1" stop-color="rgb(53.007507%, 76.106262%, 24.61853%)" offset="0.953125"/><stop stop-opacity="1" stop-color="rgb(53.359985%, 76.335144%, 24.630737%)" offset="0.960938"/><stop stop-opacity="1" stop-color="rgb(53.712463%, 76.565552%, 24.642944%)" offset="0.96875"/><stop stop-opacity="1" stop-color="rgb(54.064941%, 76.794434%, 24.655151%)" offset="0.976562"/><stop stop-opacity="1" stop-color="rgb(54.417419%, 77.024841%, 24.667358%)" offset="0.984375"/><stop stop-opacity="1" stop-color="rgb(54.769897%, 77.253723%, 24.681091%)" offset="0.992188"/><stop stop-opacity="1" stop-color="rgb(55.122375%, 77.484131%, 24.693298%)" offset="1"/></linearGradient><clipPath id="bae6c444fe"><path d="M 148 224 L 166 224 L 166 241 L 148 241 Z M 148 224 " clip-rule="nonzero"/></clipPath><clipPath id="652ea3c7fb"><path d="M 148.605469 224.136719 L 165.101562 224.511719 L 164.742188 240.257812 L 148.25 239.882812 Z M 148.605469 224.136719 " clip-rule="nonzero"/></clipPath><clipPath id="13ce4b5184"><path d="M 148.605469 224.136719 L 165.101562 224.511719 L 164.742188 240.257812 L 148.25 239.882812 Z M 148.605469 224.136719 " clip-rule="nonzero"/></clipPath><clipPath id="b74a074998"><path d="M 152 130 L 223 130 L 223 159 L 152 159 Z M 152 130 " clip-rule="nonzero"/></clipPath><clipPath id="128875e662"><path d="M 152.222656 127.894531 L 222.722656 127.753906 L 222.792969 162.253906 L 152.292969 162.394531 Z M 152.222656 127.894531 " clip-rule="nonzero"/></clipPath><clipPath id="8933a92afc"><path d="M 152.222656 127.894531 L 222.722656 127.753906 L 222.792969 162.253906 L 152.292969 162.394531 Z M 152.222656 127.894531 " clip-rule="nonzero"/></clipPath><clipPath id="6e6f0c1c97"><path d="M 179 224 L 196 224 L 196 241 L 179 241 Z M 179 224 " clip-rule="nonzero"/></clipPath><clipPath id="ed5af04ed7"><path d="M 179.332031 224.136719 L 195.828125 224.511719 L 195.46875 240.257812 L 178.972656 239.882812 Z M 179.332031 224.136719 " clip-rule="nonzero"/></clipPath><clipPath id="ada662e4ac"><path d="M 179.332031 224.136719 L 195.828125 224.511719 L 195.46875 240.257812 L 178.972656 239.882812 Z M 179.332031 224.136719 " clip-rule="nonzero"/></clipPath><clipPath id="36176ed5ed"><path d="M 210 224 L 227 224 L 227 241 L 210 241 Z M 210 224 " clip-rule="nonzero"/></clipPath><clipPath id="0cae725292"><path d="M 210.363281 224.136719 L 226.859375 224.511719 L 226.5 240.257812 L 210.003906 239.882812 Z M 210.363281 224.136719 " clip-rule="nonzero"/></clipPath><clipPath id="a5b8758750"><path d="M 210.363281 224.136719 L 226.859375 224.511719 L 226.5 240.257812 L 210.003906 239.882812 Z M 210.363281 224.136719 " clip-rule="nonzero"/></clipPath></defs><g clip-path="url(#97a24214c4)"><g clip-path="url(#5d2ba6e955)"><path fill="url(#19ac0d1c65)" d="M 71.054688 70.726562 L 71.054688 154.726562 L 303.953125 154.726562 L 303.953125 70.726562 Z M 71.054688 70.726562 " fill-rule="nonzero"/></g></g><path stroke-linecap="butt" transform="matrix(0.75, 0.000000000000000202, -0.000000000000000202, 0.75, 39.350184, 153.38526)" fill="none" stroke-linejoin="miter" d="M 0.00183833 1.001946 L 105.533095 1.001946 " stroke="#1a7b3b" stroke-width="2" stroke-opacity="1" stroke-miterlimit="4"/><g clip-path="url(#d2b8e73830)"><g clip-path="url(#2e3ccc4116)"><path fill="url(#c34d386f71)" d="M 71.054688 304.113281 L 71.054688 220.113281 L 303.953125 220.113281 L 303.953125 304.113281 Z M 71.054688 304.113281 " fill-rule="nonzero"/></g></g><g fill="#ffffff" fill-opacity="1"><g transform="translate(97.934148, 231.625263)"><g><path d="M 1.046875 2.109375 L 0.578125 1.140625 L 8.90625 -3 L 11.203125 1.640625 L 10.328125 2.078125 L 8.5 -1.59375 L 5.46875 -0.09375 L 7.1875 3.34375 L 6.3125 3.78125 L 4.59375 0.34375 Z M 1.046875 2.109375 "/></g></g></g><g fill="#ffffff" fill-opacity="1"><g transform="translate(103.803537, 242.71002)"><g><path d="M 12.359375 1.546875 L 7.40625 4.96875 C 6.53125 5.570312 5.660156 5.78125 4.796875 5.59375 C 3.929688 5.414062 3.1875 4.867188 2.5625 3.953125 C 1.925781 3.023438 1.6875 2.132812 1.84375 1.28125 C 2 0.4375 2.519531 -0.285156 3.40625 -0.890625 L 8.328125 -4.296875 L 8.9375 -3.421875 L 3.9375 0.03125 C 3.300781 0.46875 2.929688 0.976562 2.828125 1.5625 C 2.722656 2.144531 2.90625 2.773438 3.375 3.453125 C 3.820312 4.097656 4.335938 4.476562 4.921875 4.59375 C 5.515625 4.707031 6.125 4.546875 6.75 4.109375 L 11.75 0.65625 Z M 12.359375 1.546875 "/></g></g></g><g fill="#ffffff" fill-opacity="1"><g transform="translate(112.896047, 255.024411)"><g><path d="M 2.8125 3.03125 L 2.078125 2.25 L 8.1875 -3.40625 L 6.1875 -5.578125 L 6.890625 -6.25 L 11.625 -1.140625 L 10.921875 -0.46875 L 8.921875 -2.625 Z M 2.8125 3.03125 "/></g></g></g><g fill="#ffffff" fill-opacity="1"><g transform="translate(122.007367, 264.350988)"><g><path d="M 12.296875 -2.03125 L 8.515625 2.65625 C 7.847656 3.476562 7.078125 3.921875 6.203125 3.984375 C 5.328125 4.054688 4.453125 3.742188 3.578125 3.046875 C 2.703125 2.335938 2.21875 1.554688 2.125 0.703125 C 2.03125 -0.148438 2.320312 -0.992188 3 -1.828125 L 6.765625 -6.484375 L 7.609375 -5.8125 L 3.796875 -1.09375 C 3.304688 -0.488281 3.09375 0.109375 3.15625 0.703125 C 3.226562 1.296875 3.582031 1.851562 4.21875 2.375 C 4.832031 2.863281 5.4375 3.070312 6.03125 3 C 6.632812 2.9375 7.175781 2.609375 7.65625 2.015625 L 11.46875 -2.703125 Z M 12.296875 -2.03125 "/></g></g></g><g fill="#ffffff" fill-opacity="1"><g transform="translate(134.237652, 273.59236)"><g><path d="M 3.984375 -2.140625 L 2.03125 1.1875 L 1.109375 0.640625 L 5.8125 -7.375 L 8 -6.078125 C 8.976562 -5.503906 9.59375 -4.890625 9.84375 -4.234375 C 10.09375 -3.585938 10 -2.882812 9.5625 -2.125 C 8.9375 -1.070312 7.972656 -0.671875 6.671875 -0.921875 L 6.75 3.953125 L 5.640625 3.3125 L 5.65625 -1.15625 Z M 4.453125 -2.953125 L 5.734375 -2.203125 C 6.390625 -1.816406 6.945312 -1.660156 7.40625 -1.734375 C 7.875 -1.816406 8.257812 -2.117188 8.5625 -2.640625 C 8.875 -3.171875 8.941406 -3.644531 8.765625 -4.0625 C 8.585938 -4.476562 8.15625 -4.890625 7.46875 -5.296875 L 6.25 -6.015625 Z M 4.453125 -2.953125 "/></g></g></g><g fill="#ffffff" fill-opacity="1"><g transform="translate(146.390185, 280.22445)"><g><path d="M 5.953125 2.46875 L 1.1875 0.484375 L 4.75 -8.109375 L 9.515625 -6.125 L 9.140625 -5.21875 L 5.359375 -6.78125 L 4.21875 -4.03125 L 7.78125 -2.5625 L 7.421875 -1.6875 L 3.859375 -3.15625 L 2.546875 0.015625 L 6.328125 1.578125 Z M 5.953125 2.46875 "/></g></g></g><g fill="#ffffff" fill-opacity="1"><g transform="translate(158.479055, 284.779008)"><g/></g></g><g fill="#ffffff" fill-opacity="1"><g transform="translate(167.168877, 287.026013)"><g><path d="M 1.265625 0.234375 L 3.015625 -8.890625 L 4.0625 -8.6875 L 2.3125 0.4375 Z M 1.265625 0.234375 "/></g></g></g><g fill="#ffffff" fill-opacity="1"><g transform="translate(176.423564, 288.621347)"><g><path d="M 8.515625 0.53125 L 7.28125 0.453125 L 2.703125 -7.640625 L 2.65625 -7.640625 C 2.664062 -6.722656 2.648438 -5.882812 2.609375 -5.125 L 2.28125 0.140625 L 1.28125 0.078125 L 1.859375 -9.203125 L 3.078125 -9.125 L 7.640625 -1.0625 L 7.6875 -1.0625 C 7.6875 -1.175781 7.691406 -1.539062 7.703125 -2.15625 C 7.710938 -2.78125 7.734375 -3.222656 7.765625 -3.484375 L 8.09375 -8.8125 L 9.09375 -8.75 Z M 8.515625 0.53125 "/></g></g></g><g fill="#ffffff" fill-opacity="1"><g transform="translate(192.13774, 289.117543)"><g><path d="M 8.484375 -0.84375 L 7.265625 -0.71875 L 1.4375 -7.984375 L 1.390625 -7.984375 C 1.554688 -7.066406 1.675781 -6.226562 1.75 -5.46875 L 2.265625 -0.21875 L 1.28125 -0.125 L 0.375 -9.375 L 1.578125 -9.5 L 7.375 -2.28125 L 7.421875 -2.28125 C 7.398438 -2.382812 7.347656 -2.742188 7.265625 -3.359375 C 7.179688 -3.972656 7.128906 -4.410156 7.109375 -4.671875 L 6.59375 -9.984375 L 7.578125 -10.09375 Z M 8.484375 -0.84375 "/></g></g></g><g fill="#ffffff" fill-opacity="1"><g transform="translate(207.740159, 287.110048)"><g><path d="M 7.828125 -6.90625 C 8.210938 -5.46875 8.148438 -4.238281 7.640625 -3.21875 C 7.140625 -2.207031 6.238281 -1.53125 4.9375 -1.1875 C 3.613281 -0.832031 2.484375 -0.960938 1.546875 -1.578125 C 0.617188 -2.203125 -0.0390625 -3.25 -0.4375 -4.71875 C -0.820312 -6.175781 -0.757812 -7.40625 -0.25 -8.40625 C 0.25 -9.40625 1.164062 -10.082031 2.5 -10.4375 C 3.789062 -10.78125 4.90625 -10.632812 5.84375 -10 C 6.789062 -9.375 7.453125 -8.34375 7.828125 -6.90625 Z M 0.671875 -5 C 0.992188 -3.78125 1.5 -2.921875 2.1875 -2.421875 C 2.875 -1.929688 3.710938 -1.820312 4.703125 -2.09375 C 5.703125 -2.351562 6.367188 -2.863281 6.703125 -3.625 C 7.035156 -4.394531 7.039062 -5.390625 6.71875 -6.609375 C 6.394531 -7.816406 5.898438 -8.664062 5.234375 -9.15625 C 4.566406 -9.644531 3.738281 -9.757812 2.75 -9.5 C 1.75 -9.226562 1.070312 -8.707031 0.71875 -7.9375 C 0.375 -7.175781 0.359375 -6.195312 0.671875 -5 Z M 0.671875 -5 "/></g></g></g><g fill="#ffffff" fill-opacity="1"><g transform="translate(223.053897, 282.483947)"><g><path d="M 2.3125 -11.140625 L 3.390625 -11.609375 L 4.03125 -1.75 L 3.046875 -1.328125 L -3.71875 -8.515625 L -2.671875 -8.96875 L 1.703125 -4.328125 C 2.191406 -3.785156 2.632812 -3.242188 3.03125 -2.703125 C 2.894531 -3.398438 2.804688 -4.101562 2.765625 -4.8125 Z M 2.3125 -11.140625 "/></g></g></g><g fill="#ffffff" fill-opacity="1"><g transform="translate(235.328984, 276.711389)"><g><path d="M 6.0625 -3.734375 L 3.53125 -5.640625 L 0.359375 -3.6875 L 0.9375 -0.578125 L 0 0 L -1.765625 -9.875 L -0.984375 -10.359375 L 7.015625 -4.3125 Z M 2.734375 -6.296875 L 0.3125 -8.171875 C -0.0078125 -8.410156 -0.367188 -8.71875 -0.765625 -9.09375 C -0.640625 -8.695312 -0.515625 -8.25 -0.390625 -7.75 L 0.171875 -4.71875 Z M 2.734375 -6.296875 "/></g></g></g><g fill="#ffffff" fill-opacity="1"><g transform="translate(247.05222, 268.987747)"><g><path d="M 3.203125 -2.625 L 2.359375 -1.953125 L -2.9375 -8.375 L -5.21875 -6.484375 L -5.828125 -7.234375 L -0.4375 -11.671875 L 0.171875 -10.921875 L -2.09375 -9.046875 Z M 3.203125 -2.625 "/></g></g></g><g fill="#ffffff" fill-opacity="1"><g transform="translate(256.724655, 260.475013)"><g><path d="M 0.890625 -0.921875 L -5.796875 -7.390625 L -5.046875 -8.171875 L 1.640625 -1.703125 Z M 0.890625 -0.921875 "/></g></g></g><g fill="#ffffff" fill-opacity="1"><g transform="translate(263.140834, 253.604032)"><g><path d="M 1.84375 -10.28125 C 3.039062 -9.394531 3.753906 -8.394531 3.984375 -7.28125 C 4.210938 -6.164062 3.925781 -5.070312 3.125 -4 C 2.3125 -2.90625 1.34375 -2.304688 0.21875 -2.203125 C -0.894531 -2.109375 -2.0625 -2.519531 -3.28125 -3.4375 C -4.488281 -4.332031 -5.203125 -5.328125 -5.421875 -6.421875 C -5.648438 -7.523438 -5.351562 -8.628906 -4.53125 -9.734375 C -3.738281 -10.796875 -2.773438 -11.375 -1.640625 -11.46875 C -0.515625 -11.5625 0.644531 -11.164062 1.84375 -10.28125 Z M -2.578125 -4.328125 C -1.566406 -3.578125 -0.640625 -3.222656 0.203125 -3.265625 C 1.046875 -3.304688 1.769531 -3.738281 2.375 -4.5625 C 2.988281 -5.382812 3.191406 -6.203125 2.984375 -7.015625 C 2.773438 -7.828125 2.164062 -8.609375 1.15625 -9.359375 C 0.15625 -10.109375 -0.757812 -10.460938 -1.59375 -10.421875 C -2.425781 -10.390625 -3.144531 -9.96875 -3.75 -9.15625 C -4.363281 -8.320312 -4.566406 -7.492188 -4.359375 -6.671875 C -4.160156 -5.847656 -3.566406 -5.066406 -2.578125 -4.328125 Z M -2.578125 -4.328125 "/></g></g></g><g fill="#ffffff" fill-opacity="1"><g transform="translate(272.326767, 240.437318)"><g><path d="M 3.921875 -7.578125 L 3.359375 -6.484375 L -5.90625 -5.5625 L -5.921875 -5.515625 C -5.078125 -5.160156 -4.316406 -4.8125 -3.640625 -4.46875 L 1.046875 -2.03125 L 0.59375 -1.140625 L -7.65625 -5.421875 L -7.09375 -6.5 L 2.125 -7.421875 L 2.140625 -7.453125 C 2.035156 -7.492188 1.703125 -7.644531 1.140625 -7.90625 C 0.578125 -8.175781 0.179688 -8.375 -0.046875 -8.5 L -4.78125 -10.96875 L -4.328125 -11.859375 Z M 3.921875 -7.578125 "/></g></g></g><g clip-path="url(#bae6c444fe)"><g clip-path="url(#652ea3c7fb)"><g clip-path="url(#13ce4b5184)"><path fill="#1a7b3b" d="M 156.953125 224.328125 L 158.992188 229.207031 C 159.070312 229.394531 159.199219 229.558594 159.359375 229.683594 C 159.519531 229.804688 159.710938 229.882812 159.914062 229.910156 L 165.160156 230.578125 L 161.148438 234.027344 C 160.996094 234.160156 160.878906 234.332031 160.8125 234.523438 C 160.746094 234.714844 160.730469 234.921875 160.765625 235.121094 L 161.75 240.320312 L 157.230469 237.570312 C 157.058594 237.464844 156.859375 237.40625 156.65625 237.402344 C 156.453125 237.394531 156.253906 237.445312 156.074219 237.542969 L 151.433594 240.085938 L 152.652344 234.9375 C 152.699219 234.738281 152.695312 234.53125 152.636719 234.335938 C 152.578125 234.144531 152.46875 233.96875 152.320312 233.828125 L 148.46875 230.199219 L 153.742188 229.769531 C 153.945312 229.753906 154.140625 229.683594 154.304688 229.566406 C 154.472656 229.453125 154.605469 229.292969 154.695312 229.109375 Z M 156.953125 224.328125 " fill-opacity="1" fill-rule="evenodd"/></g></g></g><g fill="#1a7b3b" fill-opacity="1"><g transform="translate(61.563375, 199.286033)"><g><path d="M 10.625 0.453125 C 7.832031 0.492188 5.835938 -0.195312 4.640625 -1.625 C 3.453125 -3.0625 3.082031 -4.921875 3.53125 -7.203125 C 3.96875 -9.242188 4.941406 -10.9375 6.453125 -12.28125 C 7.972656 -13.632812 9.820312 -14.609375 12 -15.203125 C 14.1875 -15.796875 16.488281 -15.992188 18.90625 -15.796875 C 20.300781 -19.128906 21.6875 -22.234375 23.0625 -25.109375 C 24.445312 -27.992188 26.023438 -30.375 27.796875 -32.25 C 28.921875 -33.4375 30.101562 -34.257812 31.34375 -34.71875 C 32.59375 -35.1875 33.769531 -35.328125 34.875 -35.140625 C 35.988281 -34.953125 36.882812 -34.460938 37.5625 -33.671875 C 38.25 -32.890625 38.59375 -31.835938 38.59375 -30.515625 C 38.59375 -29.285156 38.476562 -27.910156 38.25 -26.390625 C 38.03125 -24.878906 37.765625 -23.347656 37.453125 -21.796875 C 37.148438 -20.242188 36.835938 -18.8125 36.515625 -17.5 C 36.191406 -16.1875 35.925781 -15.125 35.71875 -14.3125 C 37.320312 -14.414062 38.835938 -14.703125 40.265625 -15.171875 C 41.703125 -15.648438 42.878906 -16.367188 43.796875 -17.328125 C 44.109375 -17.628906 44.40625 -17.675781 44.6875 -17.46875 C 44.976562 -17.269531 45.179688 -16.984375 45.296875 -16.609375 C 45.421875 -16.234375 45.382812 -15.925781 45.1875 -15.6875 C 44.019531 -14.226562 42.539062 -13.164062 40.75 -12.5 C 38.96875 -11.832031 37.125 -11.414062 35.21875 -11.25 C 34.800781 -9.476562 34.367188 -7.679688 33.921875 -5.859375 C 33.484375 -4.035156 33.164062 -2.390625 32.96875 -0.921875 C 32.757812 -0.578125 32.378906 -0.3125 31.828125 -0.125 C 31.285156 0.0625 30.675781 0.15625 30 0.15625 C 29.320312 0.15625 28.71875 0.0625 28.1875 -0.125 C 27.65625 -0.3125 27.320312 -0.578125 27.1875 -0.921875 C 27.394531 -2.285156 27.710938 -3.859375 28.140625 -5.640625 C 28.566406 -7.429688 29.015625 -9.265625 29.484375 -11.140625 C 28.734375 -11.210938 27.753906 -11.304688 26.546875 -11.421875 C 25.335938 -11.546875 24.140625 -11.675781 22.953125 -11.8125 C 21.960938 -9.425781 20.921875 -7.320312 19.828125 -5.5 C 18.734375 -3.675781 17.453125 -2.234375 15.984375 -1.171875 C 14.523438 -0.117188 12.738281 0.421875 10.625 0.453125 Z M 30.203125 -14.40625 C 30.578125 -15.707031 30.992188 -17.234375 31.453125 -18.984375 C 31.910156 -20.742188 32.363281 -22.554688 32.8125 -24.421875 C 33.257812 -26.296875 33.617188 -28.035156 33.890625 -29.640625 C 34.054688 -30.628906 33.882812 -31.207031 33.375 -31.375 C 32.863281 -31.550781 32.234375 -31.195312 31.484375 -30.3125 C 30.523438 -29.1875 29.628906 -27.78125 28.796875 -26.09375 C 27.960938 -24.40625 27.171875 -22.609375 26.421875 -20.703125 C 25.671875 -18.796875 24.957031 -16.9375 24.28125 -15.125 C 25.300781 -14.988281 26.375 -14.851562 27.5 -14.71875 C 28.625 -14.582031 29.523438 -14.476562 30.203125 -14.40625 Z M 10.78125 -3.171875 C 11.769531 -3.203125 12.628906 -3.597656 13.359375 -4.359375 C 14.097656 -5.128906 14.789062 -6.195312 15.4375 -7.5625 C 16.082031 -8.925781 16.765625 -10.476562 17.484375 -12.21875 C 15.472656 -12.28125 13.707031 -11.894531 12.1875 -11.0625 C 10.675781 -10.226562 9.628906 -8.925781 9.046875 -7.15625 C 8.773438 -6.164062 8.75 -5.253906 8.96875 -4.421875 C 9.1875 -3.585938 9.789062 -3.171875 10.78125 -3.171875 Z M 10.78125 -3.171875 "/></g></g></g><g fill="#1a7b3b" fill-opacity="1"><g transform="translate(103.975966, 199.286033)"><g><path d="M 12.671875 -21.671875 C 14.378906 -21.878906 16.226562 -21.773438 18.21875 -21.359375 C 20.207031 -20.953125 21.972656 -20.066406 23.515625 -18.703125 C 23.679688 -18.429688 23.601562 -18.039062 23.28125 -17.53125 C 22.957031 -17.019531 22.570312 -16.59375 22.125 -16.25 C 21.6875 -15.90625 21.332031 -15.820312 21.0625 -16 C 20.039062 -16.8125 18.90625 -17.390625 17.65625 -17.734375 C 16.414062 -18.078125 15.234375 -18.195312 14.109375 -18.09375 C 12.535156 -17.957031 11.066406 -17.300781 9.703125 -16.125 C 8.347656 -14.945312 7.226562 -13.457031 6.34375 -11.65625 C 5.488281 -9.945312 5 -8.328125 4.875 -6.796875 C 4.757812 -5.265625 5.007812 -4.207031 5.625 -3.625 C 6.40625 -2.945312 7.484375 -3.148438 8.859375 -4.234375 C 10.242188 -5.328125 11.53125 -7.101562 12.71875 -9.5625 C 13.132812 -10.40625 13.554688 -11.351562 13.984375 -12.40625 C 14.410156 -13.46875 14.789062 -14.53125 15.125 -15.59375 C 15.300781 -15.863281 15.644531 -16.003906 16.15625 -16.015625 C 16.664062 -16.035156 17.207031 -15.976562 17.78125 -15.84375 C 18.363281 -15.707031 18.867188 -15.523438 19.296875 -15.296875 C 19.722656 -15.078125 19.953125 -14.832031 19.984375 -14.5625 C 19.535156 -12.957031 19.113281 -11.429688 18.71875 -9.984375 C 18.332031 -8.535156 17.941406 -7.035156 17.546875 -5.484375 C 17.160156 -3.941406 16.695312 -2.234375 16.15625 -0.359375 C 19.9375 -1.890625 23.117188 -5.550781 25.703125 -11.34375 C 25.804688 -11.550781 26.019531 -11.59375 26.34375 -11.46875 C 26.664062 -11.351562 26.960938 -11.175781 27.234375 -10.9375 C 27.515625 -10.695312 27.601562 -10.472656 27.5 -10.265625 C 26.34375 -7.847656 25.179688 -5.804688 24.015625 -4.140625 C 22.859375 -2.472656 21.582031 -1.078125 20.1875 0.046875 C 18.789062 1.171875 17.15625 2.144531 15.28125 2.96875 C 14.5 5.820312 13.679688 8.144531 12.828125 9.9375 C 11.972656 11.726562 10.929688 13.03125 9.703125 13.84375 C 8.484375 14.664062 6.921875 15.09375 5.015625 15.125 C 3.304688 15.15625 1.929688 14.71875 0.890625 13.8125 C -0.148438 12.914062 -0.566406 11.632812 -0.359375 9.96875 C -0.148438 8.332031 0.519531 6.976562 1.65625 5.90625 C 2.800781 4.832031 4.191406 3.945312 5.828125 3.25 C 7.460938 2.550781 9.113281 1.925781 10.78125 1.375 C 11.09375 0.457031 11.453125 -0.644531 11.859375 -1.9375 C 12.265625 -3.238281 12.65625 -4.519531 13.03125 -5.78125 C 12.519531 -4.820312 11.890625 -3.875 11.140625 -2.9375 C 10.390625 -2 9.503906 -1.207031 8.484375 -0.5625 C 7.460938 0.0820312 6.285156 0.421875 4.953125 0.453125 C 3.179688 0.492188 1.816406 0.03125 0.859375 -0.9375 C -0.0859375 -1.914062 -0.644531 -3.1875 -0.8125 -4.75 C -0.988281 -6.320312 -0.800781 -8.007812 -0.25 -9.8125 C 0.289062 -11.613281 1.140625 -13.332031 2.296875 -14.96875 C 3.691406 -16.976562 5.328125 -18.535156 7.203125 -19.640625 C 9.078125 -20.753906 10.898438 -21.429688 12.671875 -21.671875 Z M 9.96875 4.65625 C 8.769531 5.164062 7.675781 5.796875 6.6875 6.546875 C 5.707031 7.296875 5.03125 8.046875 4.65625 8.796875 C 4.238281 9.609375 4.15625 10.242188 4.40625 10.703125 C 4.664062 11.160156 5.085938 11.390625 5.671875 11.390625 C 6.253906 11.390625 6.867188 11.097656 7.515625 10.515625 C 8.160156 9.941406 8.6875 9.007812 9.09375 7.71875 C 9.269531 7.238281 9.425781 6.742188 9.5625 6.234375 C 9.695312 5.722656 9.832031 5.195312 9.96875 4.65625 Z M 9.96875 4.65625 "/></g></g></g><g fill="#1a7b3b" fill-opacity="1"><g transform="translate(129.321321, 199.286033)"><g><path d="M 1.328125 -8.59375 C 1.222656 -8.382812 0.992188 -8.320312 0.640625 -8.40625 C 0.285156 -8.488281 -0.0195312 -8.648438 -0.28125 -8.890625 C -0.539062 -9.128906 -0.617188 -9.351562 -0.515625 -9.5625 C 0.171875 -10.957031 0.757812 -12.222656 1.25 -13.359375 C 1.75 -14.503906 2.203125 -15.671875 2.609375 -16.859375 C 3.015625 -18.054688 3.421875 -19.390625 3.828125 -20.859375 C 3.078125 -21.941406 2.6875 -22.898438 2.65625 -23.734375 C 2.625 -24.578125 2.8125 -25.273438 3.21875 -25.828125 C 3.625 -26.390625 4.125 -26.773438 4.71875 -26.984375 C 5.320312 -27.191406 5.90625 -27.191406 6.46875 -26.984375 C 7.03125 -26.773438 7.4375 -26.335938 7.6875 -25.671875 C 7.945312 -25.015625 7.921875 -24.070312 7.609375 -22.84375 C 8.328125 -22.09375 9.117188 -21.332031 9.984375 -20.5625 C 10.859375 -19.800781 11.644531 -19.019531 12.34375 -18.21875 C 13.039062 -17.414062 13.488281 -16.613281 13.6875 -15.8125 C 13.894531 -15.019531 13.675781 -14.210938 13.03125 -13.390625 C 12.082031 -12.160156 11.210938 -10.878906 10.421875 -9.546875 C 9.640625 -8.222656 9.21875 -6.96875 9.15625 -5.78125 C 9.113281 -5.03125 9.242188 -4.40625 9.546875 -3.90625 C 9.859375 -3.414062 10.425781 -3.171875 11.25 -3.171875 C 12.0625 -3.171875 12.988281 -3.429688 14.03125 -3.953125 C 15.070312 -4.484375 16.128906 -5.351562 17.203125 -6.5625 C 18.273438 -7.769531 19.269531 -9.363281 20.1875 -11.34375 C 20.289062 -11.550781 20.492188 -11.59375 20.796875 -11.46875 C 21.109375 -11.351562 21.398438 -11.175781 21.671875 -10.9375 C 21.941406 -10.695312 22.023438 -10.472656 21.921875 -10.265625 C 21.035156 -8.253906 19.988281 -6.429688 18.78125 -4.796875 C 17.570312 -3.160156 16.179688 -1.875 14.609375 -0.9375 C 13.046875 -0.0078125 11.257812 0.453125 9.25 0.453125 C 7.269531 0.421875 5.785156 -0.109375 4.796875 -1.140625 C 3.816406 -2.179688 3.328125 -3.488281 3.328125 -5.0625 C 3.328125 -6.695312 3.773438 -8.335938 4.671875 -9.984375 C 5.578125 -11.640625 6.539062 -13.21875 7.5625 -14.71875 C 7.96875 -15.332031 8.0625 -15.921875 7.84375 -16.484375 C 7.625 -17.046875 7.285156 -17.582031 6.828125 -18.09375 C 6.367188 -18.601562 5.953125 -19.0625 5.578125 -19.46875 C 5.128906 -17.800781 4.5625 -16.070312 3.875 -14.28125 C 3.195312 -12.5 2.347656 -10.601562 1.328125 -8.59375 Z M 1.328125 -8.59375 "/></g></g></g><g fill="#1a7b3b" fill-opacity="1"><g transform="translate(149.147929, 199.286033)"><g><path d="M 7.109375 -24.734375 C 6.253906 -24.734375 5.5625 -25.03125 5.03125 -25.625 C 4.5 -26.226562 4.304688 -26.972656 4.453125 -27.859375 C 4.617188 -28.773438 5.023438 -29.519531 5.671875 -30.09375 C 6.316406 -30.675781 7.117188 -30.953125 8.078125 -30.921875 C 8.992188 -30.921875 9.707031 -30.628906 10.21875 -30.046875 C 10.726562 -29.472656 10.914062 -28.742188 10.78125 -27.859375 C 10.675781 -26.929688 10.289062 -26.175781 9.625 -25.59375 C 8.96875 -25.019531 8.128906 -24.734375 7.109375 -24.734375 Z M 3.21875 0.453125 C 1.101562 0.492188 -0.238281 -0.0625 -0.8125 -1.21875 C -1.394531 -2.382812 -1.460938 -3.953125 -1.015625 -5.921875 C -0.441406 -8.347656 0.164062 -10.703125 0.8125 -12.984375 C 1.457031 -15.265625 2.226562 -17.957031 3.125 -21.0625 C 3.320312 -21.363281 3.691406 -21.554688 4.234375 -21.640625 C 4.785156 -21.722656 5.367188 -21.722656 5.984375 -21.640625 C 6.597656 -21.554688 7.140625 -21.40625 7.609375 -21.1875 C 8.085938 -20.96875 8.378906 -20.703125 8.484375 -20.390625 C 7.835938 -18.035156 7.273438 -16.03125 6.796875 -14.375 C 6.316406 -12.726562 5.90625 -11.289062 5.5625 -10.0625 C 5.226562 -8.84375 4.925781 -7.648438 4.65625 -6.484375 C 4.445312 -5.460938 4.359375 -4.632812 4.390625 -4 C 4.429688 -3.375 4.722656 -3.082031 5.265625 -3.125 C 6.046875 -3.125 6.90625 -3.515625 7.84375 -4.296875 C 8.78125 -5.078125 9.679688 -6.085938 10.546875 -7.328125 C 11.421875 -8.578125 12.144531 -9.898438 12.71875 -11.296875 C 12.820312 -11.535156 13.046875 -11.59375 13.390625 -11.46875 C 13.734375 -11.351562 14.03125 -11.175781 14.28125 -10.9375 C 14.539062 -10.695312 14.617188 -10.457031 14.515625 -10.21875 C 13.972656 -9.0625 13.332031 -7.867188 12.59375 -6.640625 C 11.863281 -5.410156 11.019531 -4.257812 10.0625 -3.1875 C 9.113281 -2.113281 8.066406 -1.242188 6.921875 -0.578125 C 5.785156 0.078125 4.550781 0.421875 3.21875 0.453125 Z M 3.21875 0.453125 "/></g></g></g><g fill="#1a7b3b" fill-opacity="1"><g transform="translate(161.56511, 199.286033)"><g/></g></g><g fill="#1a7b3b" fill-opacity="1"><g transform="translate(171.274024, 199.286033)"><g><path d="M 40.78125 -41.5 C 42.175781 -40.132812 43.207031 -38.59375 43.875 -36.875 C 44.539062 -35.15625 44.890625 -33.359375 44.921875 -31.484375 C 44.992188 -28.796875 44.457031 -26.101562 43.3125 -23.40625 C 42.175781 -20.71875 40.582031 -18.367188 38.53125 -16.359375 C 36.863281 -14.753906 35.101562 -13.1875 33.25 -11.65625 C 31.394531 -10.125 29.625 -8.46875 27.9375 -6.6875 C 26.25 -4.914062 24.789062 -2.875 23.5625 -0.5625 C 23.320312 -0.21875 22.9375 0.0234375 22.40625 0.171875 C 21.882812 0.328125 21.320312 0.390625 20.71875 0.359375 C 20.125 0.328125 19.613281 0.175781 19.1875 -0.09375 C 18.757812 -0.375 18.53125 -0.785156 18.5 -1.328125 C 18.90625 -4.054688 19.175781 -6.5625 19.3125 -8.84375 C 19.457031 -11.125 19.570312 -13.351562 19.65625 -15.53125 C 19.738281 -17.71875 19.890625 -20.003906 20.109375 -22.390625 C 20.328125 -24.773438 20.742188 -27.414062 21.359375 -30.3125 C 20.410156 -29.25 19.347656 -28.394531 18.171875 -27.75 C 16.992188 -27.101562 15.832031 -26.550781 14.6875 -26.09375 C 13.550781 -25.632812 12.566406 -25.128906 11.734375 -24.578125 C 10.898438 -24.035156 10.378906 -23.304688 10.171875 -22.390625 C 9.960938 -21.503906 9.984375 -20.734375 10.234375 -20.078125 C 10.492188 -19.429688 11.101562 -19.023438 12.0625 -18.859375 C 12.363281 -18.785156 12.523438 -18.507812 12.546875 -18.03125 C 12.566406 -17.5625 12.457031 -17.097656 12.21875 -16.640625 C 11.976562 -16.179688 11.617188 -15.953125 11.140625 -15.953125 C 9.742188 -15.878906 8.484375 -16.128906 7.359375 -16.703125 C 6.234375 -17.285156 5.40625 -18.101562 4.875 -19.15625 C 4.351562 -20.21875 4.226562 -21.429688 4.5 -22.796875 C 4.84375 -24.160156 5.472656 -25.234375 6.390625 -26.015625 C 7.304688 -26.796875 8.40625 -27.429688 9.6875 -27.921875 C 10.96875 -28.421875 12.335938 -28.910156 13.796875 -29.390625 C 15.265625 -29.867188 16.695312 -30.472656 18.09375 -31.203125 C 19.488281 -31.929688 20.765625 -32.925781 21.921875 -34.1875 C 22.296875 -34.632812 22.78125 -34.953125 23.375 -35.140625 C 23.976562 -35.328125 24.578125 -35.394531 25.171875 -35.34375 C 25.765625 -35.289062 26.273438 -35.160156 26.703125 -34.953125 C 27.128906 -34.753906 27.34375 -34.5 27.34375 -34.1875 C 26.5625 -31.84375 25.988281 -29.210938 25.625 -26.296875 C 25.269531 -23.378906 25.015625 -20.382812 24.859375 -17.3125 C 24.710938 -14.25 24.519531 -11.304688 24.28125 -8.484375 C 25.84375 -10.765625 27.578125 -12.773438 29.484375 -14.515625 C 31.398438 -16.253906 33.242188 -18.007812 35.015625 -19.78125 C 36.578125 -21.3125 37.765625 -23.082031 38.578125 -25.09375 C 39.398438 -27.101562 39.796875 -29.164062 39.765625 -31.28125 C 39.691406 -34.101562 38.753906 -36.554688 36.953125 -38.640625 C 36.785156 -39.117188 36.910156 -39.613281 37.328125 -40.125 C 37.753906 -40.632812 38.300781 -41.039062 38.96875 -41.34375 C 39.632812 -41.65625 40.238281 -41.707031 40.78125 -41.5 Z M 40.78125 -41.5 "/></g></g></g><g fill="#1a7b3b" fill-opacity="1"><g transform="translate(215.679483, 199.286033)"><g><path d="M 7.109375 -24.734375 C 6.253906 -24.734375 5.5625 -25.03125 5.03125 -25.625 C 4.5 -26.226562 4.304688 -26.972656 4.453125 -27.859375 C 4.617188 -28.773438 5.023438 -29.519531 5.671875 -30.09375 C 6.316406 -30.675781 7.117188 -30.953125 8.078125 -30.921875 C 8.992188 -30.921875 9.707031 -30.628906 10.21875 -30.046875 C 10.726562 -29.472656 10.914062 -28.742188 10.78125 -27.859375 C 10.675781 -26.929688 10.289062 -26.175781 9.625 -25.59375 C 8.96875 -25.019531 8.128906 -24.734375 7.109375 -24.734375 Z M 3.21875 0.453125 C 1.101562 0.492188 -0.238281 -0.0625 -0.8125 -1.21875 C -1.394531 -2.382812 -1.460938 -3.953125 -1.015625 -5.921875 C -0.441406 -8.347656 0.164062 -10.703125 0.8125 -12.984375 C 1.457031 -15.265625 2.226562 -17.957031 3.125 -21.0625 C 3.320312 -21.363281 3.691406 -21.554688 4.234375 -21.640625 C 4.785156 -21.722656 5.367188 -21.722656 5.984375 -21.640625 C 6.597656 -21.554688 7.140625 -21.40625 7.609375 -21.1875 C 8.085938 -20.96875 8.378906 -20.703125 8.484375 -20.390625 C 7.835938 -18.035156 7.273438 -16.03125 6.796875 -14.375 C 6.316406 -12.726562 5.90625 -11.289062 5.5625 -10.0625 C 5.226562 -8.84375 4.925781 -7.648438 4.65625 -6.484375 C 4.445312 -5.460938 4.359375 -4.632812 4.390625 -4 C 4.429688 -3.375 4.722656 -3.082031 5.265625 -3.125 C 6.046875 -3.125 6.90625 -3.515625 7.84375 -4.296875 C 8.78125 -5.078125 9.679688 -6.085938 10.546875 -7.328125 C 11.421875 -8.578125 12.144531 -9.898438 12.71875 -11.296875 C 12.820312 -11.535156 13.046875 -11.59375 13.390625 -11.46875 C 13.734375 -11.351562 14.03125 -11.175781 14.28125 -10.9375 C 14.539062 -10.695312 14.617188 -10.457031 14.515625 -10.21875 C 13.972656 -9.0625 13.332031 -7.867188 12.59375 -6.640625 C 11.863281 -5.410156 11.019531 -4.257812 10.0625 -3.1875 C 9.113281 -2.113281 8.066406 -1.242188 6.921875 -0.578125 C 5.785156 0.078125 4.550781 0.421875 3.21875 0.453125 Z M 3.21875 0.453125 "/></g></g></g><g fill="#1a7b3b" fill-opacity="1"><g transform="translate(228.096663, 199.286033)"><g><path d="M 7.765625 0.5625 C 6.742188 0.5625 5.769531 0.320312 4.84375 -0.15625 C 3.925781 -0.632812 3.195312 -1.332031 2.65625 -2.25 C 2.113281 -3.164062 1.875 -4.289062 1.9375 -5.625 C 2.113281 -6.101562 2.421875 -6.453125 2.859375 -6.671875 C 3.304688 -6.890625 3.757812 -7.003906 4.21875 -7.015625 C 4.675781 -7.035156 5.007812 -6.945312 5.21875 -6.75 C 5.082031 -5.65625 5.269531 -4.773438 5.78125 -4.109375 C 6.289062 -3.453125 6.953125 -3.125 7.765625 -3.125 C 8.273438 -3.125 8.75 -3.238281 9.1875 -3.46875 C 9.632812 -3.707031 9.976562 -4 10.21875 -4.34375 C 9.78125 -4.75 9.539062 -5.234375 9.5 -5.796875 C 9.46875 -6.359375 9.597656 -6.84375 9.890625 -7.25 C 10.179688 -7.664062 10.566406 -7.875 11.046875 -7.875 C 11.078125 -9.09375 10.90625 -10.367188 10.53125 -11.703125 C 10.15625 -13.035156 9.753906 -14.398438 9.328125 -15.796875 C 8.898438 -17.191406 8.632812 -18.585938 8.53125 -19.984375 C 7.207031 -18.691406 5.929688 -16.992188 4.703125 -14.890625 C 3.472656 -12.796875 2.347656 -10.695312 1.328125 -8.59375 C 1.222656 -8.382812 1 -8.3125 0.65625 -8.375 C 0.320312 -8.445312 0.0195312 -8.601562 -0.25 -8.84375 C -0.53125 -9.082031 -0.617188 -9.320312 -0.515625 -9.5625 C 0.578125 -11.945312 1.828125 -14.285156 3.234375 -16.578125 C 4.648438 -18.878906 6.160156 -20.765625 7.765625 -22.234375 C 8.648438 -23.085938 9.566406 -23.628906 10.515625 -23.859375 C 11.472656 -24.097656 12.289062 -24.097656 12.96875 -23.859375 C 13.65625 -23.628906 14.09375 -23.207031 14.28125 -22.59375 C 14.46875 -21.976562 14.238281 -21.242188 13.59375 -20.390625 C 13.800781 -18.753906 14.109375 -17.28125 14.515625 -15.96875 C 14.921875 -14.65625 15.3125 -13.410156 15.6875 -12.234375 C 16.0625 -11.066406 16.316406 -9.898438 16.453125 -8.734375 C 16.585938 -7.578125 16.503906 -6.351562 16.203125 -5.0625 C 17.359375 -5.125 18.550781 -5.609375 19.78125 -6.515625 C 21.007812 -7.421875 22.113281 -9.03125 23.09375 -11.34375 C 23.195312 -11.550781 23.410156 -11.59375 23.734375 -11.46875 C 24.054688 -11.351562 24.351562 -11.175781 24.625 -10.9375 C 24.90625 -10.695312 24.992188 -10.472656 24.890625 -10.265625 C 24.003906 -8.253906 23.015625 -6.703125 21.921875 -5.609375 C 20.835938 -4.523438 19.722656 -3.769531 18.578125 -3.34375 C 17.429688 -2.914062 16.28125 -2.722656 15.125 -2.765625 C 14.375 -1.703125 13.34375 -0.875 12.03125 -0.28125 C 10.71875 0.3125 9.296875 0.59375 7.765625 0.5625 Z M 7.765625 0.5625 "/></g></g></g><g fill="#1a7b3b" fill-opacity="1"><g transform="translate(250.887048, 199.286033)"><g><path d="M 7.109375 -24.734375 C 6.253906 -24.734375 5.5625 -25.03125 5.03125 -25.625 C 4.5 -26.226562 4.304688 -26.972656 4.453125 -27.859375 C 4.617188 -28.773438 5.023438 -29.519531 5.671875 -30.09375 C 6.316406 -30.675781 7.117188 -30.953125 8.078125 -30.921875 C 8.992188 -30.921875 9.707031 -30.628906 10.21875 -30.046875 C 10.726562 -29.472656 10.914062 -28.742188 10.78125 -27.859375 C 10.675781 -26.929688 10.289062 -26.175781 9.625 -25.59375 C 8.96875 -25.019531 8.128906 -24.734375 7.109375 -24.734375 Z M 3.21875 0.453125 C 1.101562 0.492188 -0.238281 -0.0625 -0.8125 -1.21875 C -1.394531 -2.382812 -1.460938 -3.953125 -1.015625 -5.921875 C -0.441406 -8.347656 0.164062 -10.703125 0.8125 -12.984375 C 1.457031 -15.265625 2.226562 -17.957031 3.125 -21.0625 C 3.320312 -21.363281 3.691406 -21.554688 4.234375 -21.640625 C 4.785156 -21.722656 5.367188 -21.722656 5.984375 -21.640625 C 6.597656 -21.554688 7.140625 -21.40625 7.609375 -21.1875 C 8.085938 -20.96875 8.378906 -20.703125 8.484375 -20.390625 C 7.835938 -18.035156 7.273438 -16.03125 6.796875 -14.375 C 6.316406 -12.726562 5.90625 -11.289062 5.5625 -10.0625 C 5.226562 -8.84375 4.925781 -7.648438 4.65625 -6.484375 C 4.445312 -5.460938 4.359375 -4.632812 4.390625 -4 C 4.429688 -3.375 4.722656 -3.082031 5.265625 -3.125 C 6.046875 -3.125 6.90625 -3.515625 7.84375 -4.296875 C 8.78125 -5.078125 9.679688 -6.085938 10.546875 -7.328125 C 11.421875 -8.578125 12.144531 -9.898438 12.71875 -11.296875 C 12.820312 -11.535156 13.046875 -11.59375 13.390625 -11.46875 C 13.734375 -11.351562 14.03125 -11.175781 14.28125 -10.9375 C 14.539062 -10.695312 14.617188 -10.457031 14.515625 -10.21875 C 13.972656 -9.0625 13.332031 -7.867188 12.59375 -6.640625 C 11.863281 -5.410156 11.019531 -4.257812 10.0625 -3.1875 C 9.113281 -2.113281 8.066406 -1.242188 6.921875 -0.578125 C 5.785156 0.078125 4.550781 0.421875 3.21875 0.453125 Z M 3.21875 0.453125 "/></g></g></g><g fill="#1a7b3b" fill-opacity="1"><g transform="translate(263.304228, 199.286033)"><g><path d="M 12.875 -21.765625 C 15.15625 -21.804688 16.898438 -21.304688 18.109375 -20.265625 C 19.328125 -19.222656 20.097656 -17.867188 20.421875 -16.203125 C 20.742188 -14.535156 20.675781 -12.726562 20.21875 -10.78125 C 19.757812 -8.84375 18.984375 -6.96875 17.890625 -5.15625 C 19.148438 -5.019531 20.46875 -5.359375 21.84375 -6.171875 C 23.226562 -6.992188 24.460938 -8.703125 25.546875 -11.296875 C 25.648438 -11.503906 25.875 -11.554688 26.21875 -11.453125 C 26.5625 -11.347656 26.859375 -11.179688 27.109375 -10.953125 C 27.367188 -10.734375 27.445312 -10.503906 27.34375 -10.265625 C 26.25 -7.847656 25.054688 -6.085938 23.765625 -4.984375 C 22.472656 -3.878906 21.160156 -3.210938 19.828125 -2.984375 C 18.503906 -2.765625 17.210938 -2.773438 15.953125 -3.015625 C 14.785156 -1.890625 13.492188 -1.019531 12.078125 -0.40625 C 10.671875 0.207031 9.113281 0.515625 7.40625 0.515625 C 5.769531 0.515625 4.285156 0.175781 2.953125 -0.5 C 1.628906 -1.1875 0.671875 -2.296875 0.078125 -3.828125 C -0.515625 -5.367188 -0.554688 -7.429688 -0.046875 -10.015625 C 0.429688 -12.367188 1.304688 -14.421875 2.578125 -16.171875 C 3.859375 -17.929688 5.390625 -19.296875 7.171875 -20.265625 C 8.960938 -21.234375 10.863281 -21.734375 12.875 -21.765625 Z M 12.21875 -18.140625 C 11.226562 -18.109375 10.289062 -17.675781 9.40625 -16.84375 C 8.519531 -16.007812 7.769531 -14.976562 7.15625 -13.75 C 6.539062 -12.519531 6.097656 -11.257812 5.828125 -9.96875 C 5.617188 -8.90625 5.503906 -7.847656 5.484375 -6.796875 C 5.472656 -5.742188 5.660156 -4.867188 6.046875 -4.171875 C 6.441406 -3.472656 7.171875 -3.125 8.234375 -3.125 C 8.878906 -3.125 9.507812 -3.285156 10.125 -3.609375 C 10.738281 -3.929688 11.265625 -4.363281 11.703125 -4.90625 C 11.398438 -5.414062 11.304688 -5.925781 11.421875 -6.4375 C 11.546875 -6.945312 11.800781 -7.351562 12.1875 -7.65625 C 12.582031 -7.96875 13.019531 -8.070312 13.5 -7.96875 C 14.007812 -9.164062 14.398438 -10.367188 14.671875 -11.578125 C 14.941406 -12.785156 15.054688 -13.890625 15.015625 -14.890625 C 14.984375 -15.898438 14.742188 -16.710938 14.296875 -17.328125 C 13.859375 -17.941406 13.164062 -18.210938 12.21875 -18.140625 Z M 12.21875 -18.140625 "/></g></g></g><g fill="#1a7b3b" fill-opacity="1"><g transform="translate(288.547369, 199.286033)"><g><path d="M 15.890625 -21.765625 C 17.835938 -21.734375 19.09375 -21.050781 19.65625 -19.71875 C 20.21875 -18.394531 20.257812 -16.695312 19.78125 -14.625 C 19.507812 -13.457031 19.140625 -12.191406 18.671875 -10.828125 C 18.210938 -9.472656 17.847656 -8.179688 17.578125 -6.953125 C 17.378906 -5.992188 17.269531 -5.113281 17.25 -4.3125 C 17.226562 -3.519531 17.539062 -3.125 18.1875 -3.125 C 18.90625 -3.125 19.679688 -3.492188 20.515625 -4.234375 C 21.347656 -4.984375 22.179688 -5.976562 23.015625 -7.21875 C 23.859375 -8.46875 24.585938 -9.828125 25.203125 -11.296875 C 25.296875 -11.503906 25.503906 -11.554688 25.828125 -11.453125 C 26.160156 -11.347656 26.460938 -11.175781 26.734375 -10.9375 C 27.003906 -10.695312 27.085938 -10.472656 26.984375 -10.265625 C 26.472656 -9.148438 25.847656 -7.976562 25.109375 -6.75 C 24.378906 -5.519531 23.554688 -4.359375 22.640625 -3.265625 C 21.722656 -2.179688 20.71875 -1.289062 19.625 -0.59375 C 18.53125 0.101562 17.375 0.453125 16.15625 0.453125 C 14.207031 0.492188 12.898438 0.015625 12.234375 -0.984375 C 11.578125 -1.992188 11.398438 -3.335938 11.703125 -5.015625 C 11.773438 -5.453125 11.910156 -6.078125 12.109375 -6.890625 C 12.316406 -7.710938 12.53125 -8.609375 12.75 -9.578125 C 12.96875 -10.554688 13.1875 -11.476562 13.40625 -12.34375 C 13.632812 -13.207031 13.800781 -13.894531 13.90625 -14.40625 C 14.070312 -15.195312 14.144531 -15.929688 14.125 -16.609375 C 14.113281 -17.285156 13.664062 -17.609375 12.78125 -17.578125 C 12.195312 -17.578125 11.519531 -17.328125 10.75 -16.828125 C 9.988281 -16.335938 9.234375 -15.71875 8.484375 -14.96875 C 7.734375 -14.21875 7.035156 -13.421875 6.390625 -12.578125 C 5.910156 -10.972656 5.507812 -9.554688 5.1875 -8.328125 C 4.863281 -7.097656 4.566406 -5.878906 4.296875 -4.671875 C 4.023438 -3.460938 3.703125 -2.09375 3.328125 -0.5625 C 3.191406 -0.289062 2.820312 -0.078125 2.21875 0.078125 C 1.625 0.234375 0.976562 0.300781 0.28125 0.28125 C -0.414062 0.257812 -1.023438 0.148438 -1.546875 -0.046875 C -2.078125 -0.253906 -2.363281 -0.5625 -2.40625 -0.96875 C -1.582031 -4.375 -0.726562 -7.644531 0.15625 -10.78125 C 1.039062 -13.914062 1.992188 -17.34375 3.015625 -21.0625 C 3.222656 -21.332031 3.585938 -21.523438 4.109375 -21.640625 C 4.640625 -21.765625 5.203125 -21.789062 5.796875 -21.71875 C 6.398438 -21.65625 6.9375 -21.507812 7.40625 -21.28125 C 7.882812 -21.0625 8.191406 -20.75 8.328125 -20.34375 C 8.085938 -19.519531 7.898438 -18.835938 7.765625 -18.296875 C 7.628906 -17.753906 7.441406 -17.109375 7.203125 -16.359375 C 7.816406 -17.066406 8.582031 -17.847656 9.5 -18.703125 C 10.425781 -19.554688 11.441406 -20.289062 12.546875 -20.90625 C 13.648438 -21.519531 14.765625 -21.804688 15.890625 -21.765625 Z M 15.890625 -21.765625 "/></g></g></g><g fill="#ffffff" fill-opacity="1"><g transform="translate(112.821, 136.300851)"><g><path d="M 1.359375 -1.921875 L 0.734375 -1.046875 L -6.84375 -6.4375 L -3.84375 -10.65625 L -3.0625 -10.09375 L -5.4375 -6.75 L -2.671875 -4.78125 L -0.4375 -7.921875 L 0.359375 -7.359375 L -1.875 -4.21875 Z M 1.359375 -1.921875 "/></g></g></g><g fill="#ffffff" fill-opacity="1"><g transform="translate(121.135625, 125.45406)"><g><path d="M 5 -5.0625 L 2.09375 -6.328125 L -0.53125 -3.671875 L 0.765625 -0.78125 L 0 0 L -4.0625 -9.171875 L -3.421875 -9.8125 L 5.78125 -5.859375 Z M 1.15625 -6.75 L -1.65625 -8.015625 C -2.007812 -8.171875 -2.425781 -8.378906 -2.90625 -8.640625 C -2.6875 -8.296875 -2.460938 -7.890625 -2.234375 -7.421875 L -0.953125 -4.625 Z M 1.15625 -6.75 "/></g></g></g><g fill="#ffffff" fill-opacity="1"><g transform="translate(132.196161, 115.099078)"><g><path d="M -0.328125 -4.515625 L 1.921875 -1.375 L 1.046875 -0.75 L -4.375 -8.296875 L -2.3125 -9.78125 C -1.382812 -10.4375 -0.570312 -10.75 0.125 -10.71875 C 0.820312 -10.6875 1.425781 -10.316406 1.9375 -9.609375 C 2.65625 -8.609375 2.628906 -7.566406 1.859375 -6.484375 L 6.359375 -4.5625 L 5.3125 -3.8125 L 1.234375 -5.640625 Z M -0.875 -5.265625 L 0.328125 -6.125 C 0.941406 -6.570312 1.300781 -7.019531 1.40625 -7.46875 C 1.519531 -7.925781 1.398438 -8.40625 1.046875 -8.90625 C 0.691406 -9.40625 0.289062 -9.65625 -0.15625 -9.65625 C -0.601562 -9.664062 -1.148438 -9.441406 -1.796875 -8.984375 L -2.9375 -8.15625 Z M -0.875 -5.265625 "/></g></g></g><g fill="#ffffff" fill-opacity="1"><g transform="translate(144.561215, 106.798807)"><g><path d="M 4.890625 -2.265625 L -1.4375 -8.40625 L -1.484375 -8.390625 C -1.160156 -7.828125 -0.804688 -7.140625 -0.421875 -6.328125 L 2.0625 -0.96875 L 1.15625 -0.546875 L -2.765625 -8.984375 L -1.28125 -9.65625 L 4.609375 -3.9375 L 4.65625 -3.953125 L 4.109375 -12.171875 L 5.578125 -12.859375 L 9.5 -4.421875 L 8.53125 -3.96875 L 6.015625 -9.390625 C 5.722656 -10.015625 5.425781 -10.703125 5.125 -11.453125 L 5.09375 -11.4375 L 5.6875 -2.640625 Z M 4.890625 -2.265625 "/></g></g></g><g fill="#ffffff" fill-opacity="1"><g transform="translate(161.858441, 99.752198)"><g/></g></g><g fill="#ffffff" fill-opacity="1"><g transform="translate(171.874753, 97.18731)"><g><path d="M 5.359375 -0.59375 L 1.3125 -8.4375 L 1.265625 -8.421875 C 1.398438 -7.773438 1.519531 -7.007812 1.625 -6.125 L 2.265625 -0.25 L 1.28125 -0.140625 L 0.265625 -9.375 L 1.875 -9.546875 L 5.640625 -2.25 L 5.6875 -2.25 L 7.796875 -10.203125 L 9.40625 -10.390625 L 10.421875 -1.15625 L 9.34375 -1.03125 L 8.6875 -6.984375 C 8.613281 -7.660156 8.554688 -8.40625 8.515625 -9.21875 L 8.46875 -9.203125 L 6.234375 -0.6875 Z M 5.359375 -0.59375 "/></g></g></g><g fill="#ffffff" fill-opacity="1"><g transform="translate(190.407876, 95.956292)"><g><path d="M 7.109375 0.5625 L 6.1875 -2.46875 L 2.46875 -2.765625 L 1.09375 0.09375 L 0 0 L 4.390625 -9.015625 L 5.296875 -8.9375 L 8.203125 0.640625 Z M 5.921875 -3.46875 L 5.0625 -6.4375 C 4.945312 -6.8125 4.835938 -7.257812 4.734375 -7.78125 C 4.609375 -7.394531 4.441406 -6.96875 4.234375 -6.5 L 2.921875 -3.703125 Z M 5.921875 -3.46875 "/></g></g></g><g fill="#ffffff" fill-opacity="1"><g transform="translate(205.424544, 97.685103)"><g><path d="M 8.25 2.171875 L 7.0625 1.859375 L 4.125 -6.984375 L 4.078125 -7 C 3.910156 -6.09375 3.734375 -5.269531 3.546875 -4.53125 L 2.203125 0.578125 L 1.234375 0.328125 L 3.59375 -8.65625 L 4.78125 -8.34375 L 7.703125 0.4375 L 7.75 0.453125 C 7.769531 0.335938 7.84375 -0.0195312 7.96875 -0.625 C 8.101562 -1.238281 8.207031 -1.671875 8.28125 -1.921875 L 9.640625 -7.078125 L 10.609375 -6.8125 Z M 8.25 2.171875 "/></g></g></g><g fill="#ffffff" fill-opacity="1"><g transform="translate(221.374283, 102.581434)"><g><path d="M 6.46875 3 L 6.65625 -0.15625 L 3.28125 -1.734375 L 0.984375 0.46875 L 0 0 L 7.265625 -6.90625 L 8.09375 -6.515625 L 7.46875 3.46875 Z M 6.75 -1.1875 L 7 -4.25 C 7.019531 -4.644531 7.070312 -5.109375 7.15625 -5.640625 C 6.894531 -5.316406 6.59375 -4.972656 6.25 -4.609375 L 4.03125 -2.453125 Z M 6.75 -1.1875 "/></g></g></g><g fill="#ffffff" fill-opacity="1"><g transform="translate(234.845795, 109.451535)"><g><path d="M 7.1875 -0.90625 L 9.765625 0.90625 L 7.171875 4.609375 C 6.679688 4.453125 6.203125 4.257812 5.734375 4.03125 C 5.273438 3.8125 4.769531 3.507812 4.21875 3.125 C 3.070312 2.3125 2.421875 1.335938 2.265625 0.203125 C 2.109375 -0.929688 2.460938 -2.113281 3.328125 -3.34375 C 3.878906 -4.132812 4.519531 -4.71875 5.25 -5.09375 C 5.976562 -5.46875 6.75 -5.601562 7.5625 -5.5 C 8.382812 -5.394531 9.195312 -5.0625 10 -4.5 C 10.8125 -3.925781 11.460938 -3.242188 11.953125 -2.453125 L 11.078125 -1.90625 C 10.585938 -2.6875 10.03125 -3.296875 9.40625 -3.734375 C 8.46875 -4.390625 7.546875 -4.625 6.640625 -4.4375 C 5.742188 -4.25 4.953125 -3.664062 4.265625 -2.6875 C 3.546875 -1.664062 3.25 -0.710938 3.375 0.171875 C 3.5 1.054688 4.046875 1.835938 5.015625 2.515625 C 5.535156 2.878906 6.09375 3.175781 6.6875 3.40625 L 8.34375 1.0625 L 6.640625 -0.125 Z M 7.1875 -0.90625 "/></g></g></g><g fill="#ffffff" fill-opacity="1"><g transform="translate(247.848553, 119.407276)"><g><path d="M 4.578125 4.546875 L 0.90625 0.90625 L 7.46875 -5.6875 L 11.140625 -2.046875 L 10.453125 -1.359375 L 7.546875 -4.25 L 5.4375 -2.125 L 8.15625 0.59375 L 7.484375 1.265625 L 4.765625 -1.453125 L 2.359375 0.96875 L 5.265625 3.859375 Z M 4.578125 4.546875 "/></g></g></g><g fill="#ffffff" fill-opacity="1"><g transform="translate(257.516481, 129.779183)"><g><path d="M 4.5 -0.34375 L 1.375 1.90625 L 0.75 1.046875 L 8.296875 -4.390625 L 9.78125 -2.328125 C 10.445312 -1.410156 10.757812 -0.601562 10.71875 0.09375 C 10.675781 0.789062 10.300781 1.394531 9.59375 1.90625 C 8.601562 2.625 7.566406 2.609375 6.484375 1.859375 L 4.578125 6.34375 L 3.828125 5.3125 L 5.640625 1.234375 Z M 5.265625 -0.90625 L 6.140625 0.3125 C 6.585938 0.925781 7.035156 1.289062 7.484375 1.40625 C 7.929688 1.519531 8.398438 1.398438 8.890625 1.046875 C 9.390625 0.679688 9.644531 0.273438 9.65625 -0.171875 C 9.664062 -0.617188 9.4375 -1.171875 8.96875 -1.828125 L 8.140625 -2.96875 Z M 5.265625 -0.90625 "/></g></g></g><g clip-path="url(#b74a074998)"><g clip-path="url(#128875e662)"><g clip-path="url(#8933a92afc)"><path fill="#1a7b3b" d="M 221.972656 132.199219 C 209.792969 127.78125 192.640625 129.65625 188.171875 143.703125 C 187.898438 144.558594 187.675781 145.445312 187.5 146.351562 C 187.320312 145.445312 187.09375 144.5625 186.816406 143.703125 C 182.289062 129.675781 165.132812 127.867188 152.96875 132.335938 C 152.363281 132.558594 152.242188 133.339844 152.746094 133.742188 C 162.253906 141.316406 161.003906 162.039062 184.097656 153.011719 C 180.464844 141.804688 173.050781 134.867188 160.296875 133.964844 C 177.296875 133.855469 186.441406 141.777344 187.253906 158.207031 C 187.261719 158.355469 187.425781 158.402344 187.523438 158.335938 C 187.621094 158.402344 187.78125 158.355469 187.789062 158.207031 C 188.539062 141.769531 197.648438 133.816406 214.652344 133.859375 C 201.902344 134.8125 194.515625 141.777344 190.925781 153 C 214.054688 161.9375 212.722656 141.214844 222.203125 133.605469 C 222.707031 133.203125 222.582031 132.417969 221.972656 132.199219 " fill-opacity="1" fill-rule="evenodd"/></g></g></g><g clip-path="url(#6e6f0c1c97)"><g clip-path="url(#ed5af04ed7)"><g clip-path="url(#ada662e4ac)"><path fill="#1a7b3b" d="M 187.679688 224.328125 L 189.71875 229.207031 C 189.796875 229.394531 189.925781 229.558594 190.085938 229.683594 C 190.246094 229.804688 190.4375 229.882812 190.640625 229.910156 L 195.886719 230.578125 L 191.875 234.027344 C 191.722656 234.160156 191.605469 234.332031 191.539062 234.523438 C 191.472656 234.714844 191.457031 234.921875 191.492188 235.121094 L 192.476562 240.320312 L 187.957031 237.570312 C 187.785156 237.464844 187.585938 237.40625 187.382812 237.402344 C 187.179688 237.394531 186.980469 237.445312 186.800781 237.542969 L 182.160156 240.085938 L 183.378906 234.9375 C 183.425781 234.738281 183.421875 234.53125 183.363281 234.335938 C 183.304688 234.144531 183.195312 233.96875 183.046875 233.828125 L 179.195312 230.199219 L 184.46875 229.769531 C 184.671875 229.753906 184.867188 229.683594 185.03125 229.566406 C 185.199219 229.453125 185.332031 229.292969 185.421875 229.109375 Z M 187.679688 224.328125 " fill-opacity="1" fill-rule="evenodd"/></g></g></g><g clip-path="url(#36176ed5ed)"><g clip-path="url(#0cae725292)"><g clip-path="url(#a5b8758750)"><path fill="#1a7b3b" d="M 218.710938 224.328125 L 220.75 229.207031 C 220.828125 229.394531 220.953125 229.558594 221.117188 229.683594 C 221.277344 229.804688 221.46875 229.882812 221.671875 229.910156 L 226.917969 230.578125 L 222.90625 234.027344 C 222.75 234.160156 222.636719 234.332031 222.566406 234.523438 C 222.5 234.714844 222.484375 234.921875 222.523438 235.121094 L 223.507812 240.320312 L 218.988281 237.570312 C 218.8125 237.464844 218.617188 237.40625 218.414062 237.402344 C 218.210938 237.394531 218.007812 237.445312 217.832031 237.542969 L 213.191406 240.085938 L 214.410156 234.9375 C 214.457031 234.738281 214.449219 234.53125 214.390625 234.335938 C 214.332031 234.144531 214.226562 233.96875 214.078125 233.828125 L 210.226562 230.199219 L 215.5 229.769531 C 215.703125 229.753906 215.894531 229.683594 216.0625 229.566406 C 216.230469 229.453125 216.363281 229.292969 216.449219 229.109375 Z M 218.710938 224.328125 " fill-opacity="1" fill-rule="evenodd"/></g></g></g><path stroke-linecap="butt" transform="matrix(0.75, 0, 0, 0.75, 39.350184, 220.114733)" fill="none" stroke-linejoin="miter" d="M 0.00183833 0.998065 L 105.533095 0.998065 " stroke="#1a7b3b" stroke-width="2" stroke-opacity="1" stroke-miterlimit="4"/><path stroke-linecap="butt" transform="matrix(0.75, 0.000000000000000202, -0.000000000000000202, 0.75, 256.525504, 153.38526)" fill="none" stroke-linejoin="miter" d="M 0.00245239 1.001946 L 105.533709 1.001946 " stroke="#8dc63f" stroke-width="2" stroke-opacity="1" stroke-miterlimit="4"/><path stroke-linecap="butt" transform="matrix(0.75, 0, 0, 0.75, 256.525504, 220.114733)" fill="none" stroke-linejoin="miter" d="M 0.00245239 0.998065 L 105.533709 0.998065 " stroke="#8dc63f" stroke-width="2" stroke-opacity="1" stroke-miterlimit="4"/></svg>